<?xml version="1.0" encoding="utf-8"?>
<svg version="1.1" xmlns:xlink="http://www.w3.org/1999/xlink" width="18px" height="18px" viewBox="836 6308  18 18" xmlns="http://www.w3.org/2000/svg">
  <path d="M 845 6308  C 850.04 6308  854 6311.96  854 6317  C 854 6322.04  850.04 6326  845 6326  C 839.96 6326  836 6322.04  836 6317  C 836 6311.96  839.96 6308  845 6308  Z " fill-rule="nonzero" fill="#ffffff" stroke="none" fill-opacity="0" />
  <path d="M 845 6308.5  C 849.76 6308.5  853.5 6312.24  853.5 6317  C 853.5 6321.76  849.76 6325.5  845 6325.5  C 840.24 6325.5  836.5 6321.76  836.5 6317  C 836.5 6312.24  840.24 6308.5  845 6308.5  Z " stroke-width="1" stroke="#161616" fill="none" />
  <path d="M 845 6321.5  C 842.48 6321.5  840.5 6319.52  840.5 6317  C 840.5 6314.48  842.48 6312.5  845 6312.5  C 847.52 6312.5  849.5 6314.48  849.5 6317  C 849.5 6319.52  847.52 6321.5  845 6321.5  " fill-rule="nonzero" fill="#161616" stroke="none" />
</svg>