<?xml version="1.0" encoding="utf-8"?>
<svg version="1.1" xmlns:xlink="http://www.w3.org/1999/xlink" width="14px" height="14px" xmlns="http://www.w3.org/2000/svg">
  <g transform="matrix(1 0 0 1 -581 -17 )">
    <path d="M 13.3 14  L 14 13.3  L 9.7 9  C 11.6 6.7  11.3 3.2  9 1.3  C 6.7 -0.599999999999994  3.2 -0.299999999999997  1.3 2  C -0.600000000000001 4.3  -0.299999999999997 7.8  2 9.7  C 4 11.4  7 11.4  9 9.7  L 13.3 14  Z M 5.5 10  C 3 10  1 8  1 5.5  C 1 3  3 1  5.5 1  C 8 1  10 3  10 5.5  C 10 8  8 10  5.5 10  Z " fill-rule="nonzero" fill="#c6c6c6" stroke="none" transform="matrix(1 0 0 1 581 17 )" />
  </g>
</svg>