<?xml version="1.0" encoding="utf-8"?>
<svg version="1.1" xmlns:xlink="http://www.w3.org/1999/xlink" width="14px" height="14px" xmlns="http://www.w3.org/2000/svg">
  <g transform="matrix(1 0 0 1 -677 -17 )">
    <path d="M 13.6 8.2  L 12.5 7.4  L 12.5 6.6  L 13.5 5.8  C 13.9 5.5  13.9 4.9  13.7 4.5  L 12.5 2.5  C 12.3 2.2  12 2  11.6 2  C 11.5 2  11.4 2  11.3 2.1  L 10.1 2.5  C 9.9 2.4  9.7 2.2  9.4 2.1  L 9.1 0.800000000000001  C 9.1 0.300000000000001  8.7 0  8.2 0  L 5.8 0  C 5.3 0  4.9 0.300000000000001  4.8 0.800000000000001  L 4.6 2.1  C 4.3 2.2  4.1 2.3  3.9 2.4  L 2.7 2  L 2.4 2  C 2 2  1.7 2.2  1.5 2.5  L 0.3 4.5  C 0.100000000000001 4.9  0.2 5.4  0.600000000000001 5.8  L 1.5 6.7  L 1.5 7.5  L 0.600000000000001 8.2  C 0.200000000000001 8.5  0.100000000000001 9.1  0.400000000000001 9.5  L 1.6 11.5  C 1.7 11.8  2 12  2.4 12  C 2.5 12  2.6 12  2.7 11.9  L 3.9 11.5  C 4.1 11.6  4.3 11.8  4.6 11.9  L 4.9 13.2  C 5 13.7  5.4 14  5.9 14  L 8.3 14  C 8.8 14  9.2 13.7  9.3 13.2  L 9.6 11.9  C 9.8 11.8  10 11.7  10.3 11.5  L 11.5 11.9  C 11.6 11.9  11.7 12  11.8 12  C 12.2 12  12.5 11.8  12.7 11.5  L 13.8 9.5  C 14 9.1  14 8.6  13.6 8.2  Z M 12.8 9  L 11.6 11  L 9.9 10.4  C 9.5 10.7  9 11  8.5 11.2  L 8.2 13  L 5.8 13  L 5.4 11.2  C 4.9 11  4.5 10.7  4 10.4  L 2.4 11  L 1.2 9  L 2.6 7.8  C 2.5 7.3  2.5 6.7  2.6 6.2  L 1.2 5  L 2.4 3  L 4.1 3.6  C 4.5 3.2  5 3  5.5 2.8  L 5.8 1  L 8.2 1  L 8.6 2.8  C 9.1 3  9.5 3.3  10 3.6  L 11.6 3  L 12.8 5  L 11.4 6.2  C 11.5 6.7  11.5 7.3  11.4 7.8  L 12.8 9  Z M 10 7  C 10 8.6  8.7 10  7 10  C 5.3 10  4 8.7  4 7  C 4 5.3  5.3 4  7 4  C 8.7 4  10 5.3  10 7  Z M 7 5  C 7.1 5  7 5  7 5  C 5.9 5  5 5.8  5 6.9  L 5 7  C 5 8.1  5.8 9  6.9 9  L 7 9  C 8.1 9  9 8.2  9 7.1  L 9 7  C 9 5.9  8.2 5  7 5  Z " fill-rule="nonzero" fill="#c6c6c6" stroke="none" transform="matrix(1 0 0 1 677 17 )" />
  </g>
</svg>