<svg xmlns="http://www.w3.org/2000/svg" xmlns:xlink="http://www.w3.org/1999/xlink" width="18" height="18" version="1.1"><defs><mask id="clip233" fill="#fff"><path fill-rule="evenodd" d="M 0 9 C 0 13.9705627482 4.0294372518 18 9 18 C 13.9705627482 18 18 13.9705627482 18 9 C 18 4.0294372518 13.9705627482 0 9 0 C 4.0294372518 0 0 4.0294372518 0 9 Z"/></mask></defs><g><path fill="#000" fill-rule="nonzero" stroke="none" d="M 0 9 C 0 13.9705627482 4.0294372518 18 9 18 C 13.9705627482 18 18 13.9705627482 18 9 C 18 4.0294372518 13.9705627482 0 9 0 C 4.0294372518 0 0 4.0294372518 0 9 Z" transform="matrix(1 0 0 1 -1 -1 ) matrix(1 0 0 1 1 1 )"/><path fill="none" stroke="#000" stroke-width="2" d="M 0 9 C 0 13.9705627482 4.0294372518 18 9 18 C 13.9705627482 18 18 13.9705627482 18 9 C 18 4.0294372518 13.9705627482 0 9 0 C 4.0294372518 0 0 4.0294372518 0 9 Z" mask="url(#clip233)" transform="matrix(1 0 0 1 -1 -1 ) matrix(1 0 0 1 1 1 )"/></g></svg>