<?xml version="1.0" encoding="utf-8"?>
<svg version="1.1" xmlns:xlink="http://www.w3.org/1999/xlink" width="28px" height="28px" xmlns="http://www.w3.org/2000/svg">
  <g transform="matrix(1 0 0 1 -37 -20 )">
    <path d="M 37 20  L 65 20  L 65 48  L 37 48  L 37 20  " fill-rule="nonzero" fill="#cccccc" stroke="none" />
    <path d="M 39 22  L 63 22  L 63 46  L 39 46  L 39 22  " fill-rule="nonzero" fill="#ffffff" stroke="none" />
    <path d="M 53.66 28.4  C 52.484 28.4  51.56 27.476  51.56 26.3  C 51.56 25.124  52.484 24.2  53.66 24.2  C 54.836 24.2  55.76 25.124  55.76 26.3  C 55.76 27.476  54.836 28.4  53.66 28.4  " fill-rule="nonzero" fill="#cccccc" stroke="none" />
    <path d="M 40 46  L 40 33.35  L 45.75 27.6  L 53.8 32.2  L 58.4 31.05  L 63 32.2  L 63 46  L 40 46  " fill-rule="nonzero" fill="#169bd5" stroke="none" />
  </g>
</svg>