<svg xmlns="http://www.w3.org/2000/svg" xmlns:xlink="http://www.w3.org/1999/xlink" width="14" height="16" version="1.1"><g><path fill="#161616" fill-rule="nonzero" stroke="none" d="M 0 6 L 0 5 L 14 5 L 14 6 L 0 6 Z M 3 4 L 3 0 L 4 0 L 4 4 L 3 4 Z M 10 4 L 10 0 L 11 0 L 11 4 L 10 4 Z M 0 14.5 L 0 2.5 C 0 1.67157287525381 0.67157287525381 1 1.5 1 L 12.5 1 C 13.3284271247462 1 14 1.67157287525381 14 2.5 L 14 14.5 C 14 15.3284271247462 13.3284271247462 16 12.5 16 L 1.5 16 C 0.67157287525381 16 0 15.3284271247462 0 14.5 Z M 1.5 2 C 1.2238576250846 2 1 2.2238576250846 1 2.5 L 1 14.5 C 1 14.7761423749154 1.2238576250846 15 1.5 15 L 12.5 15 C 12.7761423749154 15 13 14.7761423749154 13 14.5 L 13 2.5 C 13 2.2238576250846 12.7761423749154 2 12.5 2 L 1.5 2 Z" transform="matrix(1 0 0 1 -786 -1052 ) matrix(1 0 0 1 786 1052 )"/></g></svg>