<?xml version="1.0" encoding="utf-8"?>
<svg version="1.1" xmlns:xlink="http://www.w3.org/1999/xlink" width="12px" height="12px" xmlns="http://www.w3.org/2000/svg">
  <g transform="matrix(1 0 0 1 -2 -2 )">
    <path d="M 8 11  C 8 11.5522847498308  7.55228474983079 12  7 12  L 5 12  C 4.44771525016921 12  4 11.5522847498308  4 11  L 4 7.205  L 0.295 3.5  C 0.107206106614471 3.31332485481155  0.00111639474885461 3.05978842475982  0 2.795  L 0 1  C 0 0.447715250169207  0.447715250169207 0  1 0  L 11 0  C 11.5522847498308 0  12 0.447715250169207  12 1  L 12 2.795  C 11.9988836052511 3.05978842475982  11.8927938933855 3.31332485481155  11.705 3.5  L 8 7.205  L 8 11  Z M 11 1  L 1 1  L 1 2.795  L 5 6.795  L 5 11  L 7 11  L 7 6.795  L 11 2.795  L 11 1  Z " fill-rule="nonzero" fill="#161616" stroke="none" transform="matrix(1 0 0 1 2 2 )" />
  </g>
</svg>