<?xml version="1.0" encoding="utf-8"?>
<svg version="1.1" xmlns:xlink="http://www.w3.org/1999/xlink" width="18px" height="18px" viewBox="512 705  18 18" xmlns="http://www.w3.org/2000/svg">
  <path d="M 521 705  C 526.04 705  530 708.96  530 714  C 530 719.04  526.04 723  521 723  C 515.96 723  512 719.04  512 714  C 512 708.96  515.96 705  521 705  Z " fill-rule="nonzero" fill="#ffffff" stroke="none" fill-opacity="0" />
  <path d="M 521 705.5  C 525.76 705.5  529.5 709.24  529.5 714  C 529.5 718.76  525.76 722.5  521 722.5  C 516.24 722.5  512.5 718.76  512.5 714  C 512.5 709.24  516.24 705.5  521 705.5  Z " stroke-width="1" stroke="#161616" fill="none" />
  <path d="M 521 718.5  C 518.48 718.5  516.5 716.52  516.5 714  C 516.5 711.48  518.48 709.5  521 709.5  C 523.52 709.5  525.5 711.48  525.5 714  C 525.5 716.52  523.52 718.5  521 718.5  " fill-rule="nonzero" fill="#161616" stroke="none" />
</svg>