<?xml version="1.0" encoding="utf-8"?>
<svg version="1.1" xmlns:xlink="http://www.w3.org/1999/xlink" width="14px" height="14px" xmlns="http://www.w3.org/2000/svg">
  <g transform="matrix(1 0 0 1 -1013 -609 )">
    <path d="M 1 1  L 1 8  L 0 8  L 0 1  C 0 0.447715250169207  0.447715250169153 0  1 0  L 8 0  L 8 1  L 1 1  Z M 4 4  L 13 4  L 13 13  L 4 13  L 4 4  Z M 14 4  C 14 3.44771525016921  13.5522847498308 3  13 3  L 4 3  C 3.44771525016915 3  3 3.44771525016921  3 4  L 3 13  C 3 13.5522847498308  3.44771525016915 14  4 14  L 13 14  C 13.5522847498308 14  14 13.5522847498308  14 13  L 14 4  Z " fill-rule="nonzero" fill="#161616" stroke="none" transform="matrix(1 0 0 1 1013 609 )" />
  </g>
</svg>