<?xml version="1.0" encoding="utf-8"?>
<svg version="1.1" xmlns:xlink="http://www.w3.org/1999/xlink" width="16px" height="16px" xmlns="http://www.w3.org/2000/svg">
  <g transform="matrix(1 0 0 1 -2 -2 )">
    <path d="M 16 14.6666666666667  C 16 14.6666666666667  16 1.33333333333334  16 1.33333333333334  C 16 0.596953666892276  15.4030463331077 0  14.6666666666667 0  C 14.6666666666667 0  1.33333333333334 0  1.33333333333334 0  C 0.59695366689229 0  0 0.596953666892276  0 1.33333333333334  C 0 1.33333333333334  0 14.6666666666667  0 14.6666666666667  C 0 15.4030463331077  0.59695366689229 16  1.33333333333334 16  C 1.33333333333334 16  14.6666666666667 16  14.6666666666667 16  C 15.4030463331077 16  16 15.4030463331077  16 14.6666666666667  Z M 15 1  L 15 15  L 1 15  L 1 1  L 15 1  Z " fill-rule="nonzero" fill="#ffffff" stroke="none" transform="matrix(1 0 0 1 2 2 )" />
  </g>
</svg>