<?xml version="1.0" encoding="utf-8"?>
<svg version="1.1" xmlns:xlink="http://www.w3.org/1999/xlink" width="16px" height="16px" xmlns="http://www.w3.org/2000/svg">
  <g>
    <path d="M 13.5 16  L 13.5 13.5  L 16 13.5  L 16 16  L 13.5 16  Z M 6.75 16  L 6.75 13.5  L 9.25 13.5  L 9.25 16  L 6.75 16  Z M 0 13.5  L 2.5 13.5  L 2.5 16  L 0 16  L 0 13.5  Z M 16 6.75  L 16 9.25  L 13.5 9.25  L 13.5 6.75  L 16 6.75  Z M 9.25 9.25  L 6.75 9.25  L 6.75 6.75  L 9.25 6.75  L 9.25 9.25  Z M 0 9.25  L 0 6.75  L 2.5 6.75  L 2.5 9.25  L 0 9.25  Z M 13.5 0  L 16 0  L 16 2.5  L 13.5 2.5  L 13.5 0  Z M 9.25 0  L 9.25 2.5  L 6.75 2.5  L 6.75 0  L 9.25 0  Z M 2.5 2.5  L 0 2.5  L 0 0  L 2.5 0  L 2.5 2.5  Z " fill-rule="nonzero" fill="#f4f4f4" stroke="none" />
  </g>
</svg>