<?xml version="1.0" encoding="utf-8"?>
<svg version="1.1" xmlns:xlink="http://www.w3.org/1999/xlink" width="17px" height="17px" xmlns="http://www.w3.org/2000/svg">
  <g transform="matrix(1 0 0 1 -310 -137 )">
    <path d="M 15.5 15.25  C 15.5 15.9403559372885  14.9403559372885 16.5  14.25 16.5  L 1.75 16.5  C 1.05964406271153 16.5  0.5 15.9403559372885  0.5 15.25  L 0.5 2.75  C 0.5 2.0596440627115  1.05964406271153 1.5  1.75 1.5  L 7.375 1.5  L 7.375 2.75  L 2 2.75  L 2 15  L 14.25 15  L 14.25 9.625  L 15.5 9.625  L 15.5 15.25  Z M 16.75 0.25  L 11.125 0.25  L 11.125 1.5  L 14.61875 1.5  L 9.25 6.86875000000001  L 10.13125 7.75  L 15.5 2.38124999999999  L 15.5 5.875  L 16.75 5.875  L 16.75 0.25  Z " fill-rule="nonzero" fill="#161616" stroke="none" transform="matrix(1 0 0 1 310 137 )" />
  </g>
</svg>