<?xml version="1.0" encoding="utf-8"?>
<svg version="1.1" xmlns:xlink="http://www.w3.org/1999/xlink" width="14px" height="14px" xmlns="http://www.w3.org/2000/svg">
  <g transform="matrix(1 0 0 1 -833 -607 )">
    <path d="M 14 7  C 14 3.13400675118445  10.8659932488156 0  7 0  C 3.13400675118444 0  0 3.13400675118445  0 7  C 0 10.8659932488156  3.13400675118444 14  7 14  C 10.8659932488156 14  14 10.8659932488156  14 7  Z M 13 7  C 13 10.3137084989848  10.3137084989848 13  7 13  C 3.68629150101524 13  1 10.3137084989848  1 7  C 1 3.68629150101524  3.68629150101524 1  7 1  C 10.3137084989848 1  13 3.68629150101524  13 7  Z M 6.5 8.5  L 6.5 3  L 7.5 3  L 7.5 8.5  L 6.5 8.5  Z M 7.75 10.75  C 7.75 10.3357864376269  7.41421356237309 10  7 10  C 6.58578643762691 10  6.25 10.3357864376269  6.25 10.75  C 6.25 11.1642135623731  6.58578643762691 11.5  7 11.5  C 7.41421356237309 11.5  7.75 11.1642135623731  7.75 10.75  Z " fill-rule="nonzero" fill="#da1e28" stroke="none" transform="matrix(1 0 0 1 833 607 )" />
  </g>
</svg>