<?xml version="1.0" encoding="utf-8"?>
<svg version="1.1" xmlns:xlink="http://www.w3.org/1999/xlink" width="18px" height="18px" xmlns="http://www.w3.org/2000/svg">
  <g transform="matrix(1 0 0 1 -1 -1 )">
    <path d="M 0 9  C 0 14  4 18  9 18  C 14 18  18 14  18 9  C 18 4  14 0  9 0  C 4 0  0 4  0 9  Z M 9.7 4  L 9.7 11  L 8.2 11  L 8.2 4  L 9.7 4  Z M 9 13  C 9.6 13  10 13.4  10 14  C 10 14.6  9.6 15  9 15  C 8.4 15  8 14.6  8 14  C 8 13.4  8.4 13  9 13  Z " fill-rule="nonzero" fill="#f1c21b" stroke="none" transform="matrix(1 0 0 1 1 1 )" />
  </g>
</svg>