<svg xmlns="http://www.w3.org/2000/svg" xmlns:xlink="http://www.w3.org/1999/xlink" width="16" height="16" version="1.1" viewBox="512 651 16 16"><path fill="#fff" fill-opacity="0" fill-rule="nonzero" stroke="none" d="M 512.5 653 A 1.5 1.5 0 0 1 514 651.5 L 526 651.5 A 1.5 1.5 0 0 1 527.5 653 L 527.5 665 A 1.5 1.5 0 0 1 526 666.5 L 514 666.5 A 1.5 1.5 0 0 1 512.5 665 L 512.5 653 Z"/><path fill="none" stroke="#c6c6c6" stroke-width="1" d="M 512.5 653 A 1.5 1.5 0 0 1 514 651.5 L 526 651.5 A 1.5 1.5 0 0 1 527.5 653 L 527.5 665 A 1.5 1.5 0 0 1 526 666.5 L 514 666.5 A 1.5 1.5 0 0 1 512.5 665 L 512.5 653 Z"/></svg>