<svg xmlns="http://www.w3.org/2000/svg" xmlns:xlink="http://www.w3.org/1999/xlink" width="16" height="16" version="1.1" viewBox="512 651 16 16"><path fill="#fff" fill-opacity="0" fill-rule="nonzero" stroke="none" d="M 513.5 653 A 0.5 0.5 0 0 1 514 652.5 L 526 652.5 A 0.5 0.5 0 0 1 526.5 653 L 526.5 665 A 0.5 0.5 0 0 1 526 665.5 L 514 665.5 A 0.5 0.5 0 0 1 513.5 665 L 513.5 653 Z"/><path fill="none" stroke="#0f62fe" stroke-width="2" d="M 513 653 A 1 1 0 0 1 514 652 L 526 652 A 1 1 0 0 1 527 653 L 527 665 A 1 1 0 0 1 526 666 L 514 666 A 1 1 0 0 1 513 665 L 513 653 Z"/></svg>