<svg xmlns="http://www.w3.org/2000/svg" xmlns:xlink="http://www.w3.org/1999/xlink" width="16" height="16" version="1.1" viewBox="512 679 16 16"><path fill="#fff" fill-opacity="0" fill-rule="nonzero" stroke="none" d="M 512.5 681 A 1.5 1.5 0 0 1 514 679.5 L 526 679.5 A 1.5 1.5 0 0 1 527.5 681 L 527.5 693 A 1.5 1.5 0 0 1 526 694.5 L 514 694.5 A 1.5 1.5 0 0 1 512.5 693 L 512.5 681 Z"/><path fill="none" stroke="#161616" stroke-width="1" d="M 512.5 681 A 1.5 1.5 0 0 1 514 679.5 L 526 679.5 A 1.5 1.5 0 0 1 527.5 681 L 527.5 693 A 1.5 1.5 0 0 1 526 694.5 L 514 694.5 A 1.5 1.5 0 0 1 512.5 693 L 512.5 681 Z"/></svg>