<?xml version="1.0" encoding="utf-8"?>
<svg version="1.1" xmlns:xlink="http://www.w3.org/1999/xlink" width="16px" height="16px" viewBox="512 623  16 16" xmlns="http://www.w3.org/2000/svg">
  <path d="M 512.5 625  A 1.5 1.5 0 0 1 514 623.5 L 526 623.5  A 1.5 1.5 0 0 1 527.5 625 L 527.5 637  A 1.5 1.5 0 0 1 526 638.5 L 514 638.5  A 1.5 1.5 0 0 1 512.5 637 L 512.5 625  Z " fill-rule="nonzero" fill="#ffffff" stroke="none" fill-opacity="0" />
  <path d="M 512.5 625  A 1.5 1.5 0 0 1 514 623.5 L 526 623.5  A 1.5 1.5 0 0 1 527.5 625 L 527.5 637  A 1.5 1.5 0 0 1 526 638.5 L 514 638.5  A 1.5 1.5 0 0 1 512.5 637 L 512.5 625  Z " stroke-width="1" stroke="#161616" fill="none" />
</svg>