<svg xmlns="http://www.w3.org/2000/svg" xmlns:xlink="http://www.w3.org/1999/xlink" width="16" height="16" version="1.1" viewBox="512 679 16 16"><path fill="#fff" fill-opacity="0" fill-rule="nonzero" stroke="none" d="M 513.5 681 A 0.5 0.5 0 0 1 514 680.5 L 526 680.5 A 0.5 0.5 0 0 1 526.5 681 L 526.5 693 A 0.5 0.5 0 0 1 526 693.5 L 514 693.5 A 0.5 0.5 0 0 1 513.5 693 L 513.5 681 Z"/><path fill="none" stroke="#0f62fe" stroke-width="2" d="M 513 681 A 1 1 0 0 1 514 680 L 526 680 A 1 1 0 0 1 527 681 L 527 693 A 1 1 0 0 1 526 694 L 514 694 A 1 1 0 0 1 513 693 L 513 681 Z"/></svg>