<svg xmlns="http://www.w3.org/2000/svg" xmlns:xlink="http://www.w3.org/1999/xlink" width="16" height="16" version="1.1" viewBox="512 623 16 16"><path fill="#fff" fill-opacity="0" fill-rule="nonzero" stroke="none" d="M 513.5 625 A 0.5 0.5 0 0 1 514 624.5 L 526 624.5 A 0.5 0.5 0 0 1 526.5 625 L 526.5 637 A 0.5 0.5 0 0 1 526 637.5 L 514 637.5 A 0.5 0.5 0 0 1 513.5 637 L 513.5 625 Z"/><path fill="none" stroke="#0f62fe" stroke-width="2" d="M 513 625 A 1 1 0 0 1 514 624 L 526 624 A 1 1 0 0 1 527 625 L 527 637 A 1 1 0 0 1 526 638 L 514 638 A 1 1 0 0 1 513 637 L 513 625 Z"/></svg>