<?xml version="1.0" encoding="utf-8"?>
<svg version="1.1" xmlns:xlink="http://www.w3.org/1999/xlink" width="14px" height="14px" xmlns="http://www.w3.org/2000/svg">
  <g transform="matrix(1 0 0 1 -1 -1 )">
    <path d="M 7 0  C 3.13400675118445 0  0 3.13400675118445  0 7  C 0 10.8659932488156  3.13400675118445 14  7 14  C 10.8659932488156 14  14 10.8659932488156  14 7  C 14 3.13400675118445  10.8659932488156 0  7 0  Z M 12.9635093791565 7.03649062084351  C 12.9635093791565 8.43894840995807  12.4722245628979 9.79709650989488  11.575 10.875  L 3.125 2.425  C 4.20290349010512 1.52777543710212  5.56105159004193 1.03649062084351  6.96350937915649 1.03649062084351  C 10.2772178781412 1.03649062084351  12.9635093791565 3.72278212185875  12.9635093791565 7.03649062084351  Z M 10.865 11.58  C 8.62900734402635 13.4693544621792  5.35599265597365 13.4693544621792  3.12 11.58  C 0.598922731510337 9.43909399505826  0.285823602541758 5.66177664628733  2.42 3.135  L 10.865 11.58  Z " fill-rule="nonzero" fill="#da1e28" stroke="none" transform="matrix(1 0 0 1 1 1 )" />
  </g>
</svg>