<?xml version="1.0" encoding="utf-8"?>
<svg version="1.1" xmlns:xlink="http://www.w3.org/1999/xlink" width="84px" height="84px" xmlns="http://www.w3.org/2000/svg">
  <g transform="matrix(1 0 0 1 -2 -2 )">
    <path d="M 64.3052864242388 6.54714263608337  C 57.2525267735246 2.11572294104343  49.3814409063544 0  41.6033007329053 0  C 27.5624393053696 0.000999869064770102  13.8226411031474 6.89209746342741  5.74040686654608 19.4924474176001  C 2.89849125310115 23.92386711264  1.00825872101602 28.6822439918582  0 33.5346085631643  C 0 33.5346085631643  7.9731240744072 34.8974300984395  7.9731240744072 34.8974300984395  C 8.79852224582011 31.0529335444168  10.3139411651828 27.2874266465106  12.5638331207967 23.7798859673138  C 18.9023253208513 13.8991798693028  29.7577761798865 7.9999523871874  41.6033007329053 7.99895251812263  C 48.1024273384123 7.99895251812263  54.4540531691013 9.83271238290224  59.9732088734205 13.3002582995084  C 75.9639093105362 23.3469426622704  80.713232203819 44.3961862137101  70.5619460026478 60.221113901751  C 64.2234538025932 70.1018199997619  53.368002943558 76.0010474818774  41.5224783905392 76.0010474818774  C 35.0233517850322 76.0010474818774  28.6717259543432 74.1682874861625  23.152570250024 70.7007415695564  C 20.5854506006235 69.0879527680899  18.3274764107731 67.1792027234529  16.3564215363219 65.0664793896037  C 16.3564215363219 65.0664793896037  10.2482730120105 70.3117925033626  10.2482730120105 70.3117925033626  C 12.7244675262492 72.9924414659985  15.5734550946511 75.4131244717954  18.8204926992057 77.4538572329814  C 25.87325234992 81.8852769280213  33.7443382170901 84  41.5224783905392 84  C 55.5633398180749 84  69.3031380202971 77.1079025365726  77.3853722568984 64.5085524514647  C 89.9451642605768 44.9281165561653  84.0895855561592 18.9785147183107  64.3052864242388 6.54714263608337  Z " fill-rule="nonzero" fill="#0f62fe" stroke="none" transform="matrix(1 0 0 1 2 2 )" />
  </g>
</svg>