<?xml version="1.0" encoding="utf-8"?>
<svg version="1.1" xmlns:xlink="http://www.w3.org/1999/xlink" width="16px" height="16px" viewBox="16 12  16 16" xmlns="http://www.w3.org/2000/svg">
  <path d="M 16.5 14  A 1.5 1.5 0 0 1 18 12.5 L 30 12.5  A 1.5 1.5 0 0 1 31.5 14 L 31.5 26  A 1.5 1.5 0 0 1 30 27.5 L 18 27.5  A 1.5 1.5 0 0 1 16.5 26 L 16.5 14  Z " fill-rule="nonzero" fill="#ffffff" stroke="none" fill-opacity="0" />
  <path d="M 16.5 14  A 1.5 1.5 0 0 1 18 12.5 L 30 12.5  A 1.5 1.5 0 0 1 31.5 14 L 31.5 26  A 1.5 1.5 0 0 1 30 27.5 L 18 27.5  A 1.5 1.5 0 0 1 16.5 26 L 16.5 14  Z " stroke-width="1" stroke="#161616" fill="none" />
</svg>