<svg xmlns="http://www.w3.org/2000/svg" xmlns:xlink="http://www.w3.org/1999/xlink" width="16" height="16" version="1.1" viewBox="16 12 16 16"><path fill="#fff" fill-opacity="0" fill-rule="nonzero" stroke="none" d="M 16.5 14 A 1.5 1.5 0 0 1 18 12.5 L 30 12.5 A 1.5 1.5 0 0 1 31.5 14 L 31.5 26 A 1.5 1.5 0 0 1 30 27.5 L 18 27.5 A 1.5 1.5 0 0 1 16.5 26 L 16.5 14 Z"/><path fill="none" stroke="#c6c6c6" stroke-width="1" d="M 16.5 14 A 1.5 1.5 0 0 1 18 12.5 L 30 12.5 A 1.5 1.5 0 0 1 31.5 14 L 31.5 26 A 1.5 1.5 0 0 1 30 27.5 L 18 27.5 A 1.5 1.5 0 0 1 16.5 26 L 16.5 14 Z"/></svg>