<?xml version="1.0" encoding="utf-8"?>
<svg version="1.1" xmlns:xlink="http://www.w3.org/1999/xlink" width="16px" height="16px" viewBox="16 12  16 16" xmlns="http://www.w3.org/2000/svg">
  <path d="M 17.5 14  A 0.5 0.5 0 0 1 18 13.5 L 30 13.5  A 0.5 0.5 0 0 1 30.5 14 L 30.5 26  A 0.5 0.5 0 0 1 30 26.5 L 18 26.5  A 0.5 0.5 0 0 1 17.5 26 L 17.5 14  Z " fill-rule="nonzero" fill="#ffffff" stroke="none" fill-opacity="0" />
  <path d="M 17 14  A 1 1 0 0 1 18 13 L 30 13  A 1 1 0 0 1 31 14 L 31 26  A 1 1 0 0 1 30 27 L 18 27  A 1 1 0 0 1 17 26 L 17 14  Z " stroke-width="2" stroke="#0f62fe" fill="none" />
</svg>