<?xml version="1.0" encoding="utf-8"?>
<svg version="1.1" xmlns:xlink="http://www.w3.org/1999/xlink" width="81px" height="32px" xmlns="http://www.w3.org/2000/svg">
  <g transform="matrix(1 0 0 1 -416 -336 )">
    <path d="M 0 30  L 0 32  L 15.689 32  L 15.689 30  L 0 30  Z M 49.309 21.40099488428  L 49.309 23.4389943971141  L 56.036 23.4389943971141  L 56.036 21.40099488428  L 49.309 21.40099488428  Z M 49.309 17.1209959073762  L 49.309 19.1589954202103  L 56.036 19.1589954202103  L 56.036 17.1209959073762  L 49.309 17.1209959073762  Z M 69.488 30  L 69.488 32  L 80.698 32  L 80.698 30  L 69.488 30  Z M 69.488 25.6819938609447  L 69.488 27.7199933737788  L 80.698 27.7199933737788  L 80.698 25.6819938609447  L 69.488 25.6819938609447  Z M 69.488 21.40099488428  L 69.488 23.4389943971141  L 76.214 23.4389943971141  L 76.214 21.40099488428  L 69.488 21.40099488428  Z M 69.487 17.1209959073762  L 69.487 19.1589954202103  L 76.213 19.1589954202103  L 76.213 17.1209959073762  L 69.487 17.1209959073762  Z M 69.488 12.9379969072854  L 69.488 14.8789964433065  L 76.214 14.8789964433065  L 76.214 13  L 63.606 13  L 62.899 14.8779964435455  L 68.802 14.8779964435455  L 69.488 12.9379969072854  Z M 62.625 14.8789964433065  L 61.916 13  L 49.31 13  L 49.31 14.8789964433065  L 56.036 14.8789964433065  L 56.036 12.9389969070463  L 56.722 14.8789964433065  L 62.625 14.8789964433065  Z M 76.214 11  L 76.213 9  L 65.091 9  L 64.384 11  L 76.214 11  Z M 80.698 0  L 68.06 0  L 67.354 2  L 80.698 2  L 80.698 0  Z M 62.045 29.9619928378485  L 62.757 31.9999923506826  L 63.477 29.9619928378485  L 62.045 29.9619928378485  Z M 60.534 25.6819938609447  L 61.254 27.7199933737788  L 64.269 27.7199933737788  L 64.989 25.6819938609447  L 60.534 25.6819938609447  Z M 59.024 21.40099488428  L 59.743 23.439994396875  L 65.78 23.439994396875  L 66.5 21.40099488428  L 59.024 21.40099488428  Z M 57.511 17  L 58.232 19.1589954202103  L 67.292 19.1589954202103  L 68.011 17  L 57.511 17  Z M 49.309 9  L 49.309 11  L 61.139 11  L 60.432 9  L 49.309 9  Z M 44.826 25.6819938609447  L 44.826 27.7199933737788  L 56.036 27.7199933737788  L 56.036 25.6819938609447  L 44.826 25.6819938609447  Z M 44.826 30  L 44.826 32  L 56.036 32  L 56.036 30  L 44.826 30  Z M 58.165 2  L 57.457 0  L 44.825 0  L 44.825 2  L 58.165 2  Z M 42.743 21.4049948833238  L 35.453 21.4049948833238  L 35.453 23.441994396397  L 42.991 23.441994396397  C 42.991 22.7389945644429  42.901 22.0579947272299  42.743 21.4049948833238  Z M 0 25.6829938607057  L 0 27.7209933735398  L 15.689 27.7209933735398  L 15.689 25.6829938607057  L 0 25.6829938607057  Z M 4.483 21.4049948833238  L 4.483 23.441994396397  L 11.207 23.441994396397  L 11.207 21.4049948833238  L 4.483 21.4049948833238  Z M 4.483 17.125995906181  L 4.483 19.1639954190151  L 11.207 19.1639954190151  L 11.207 17.125995906181  L 4.483 17.125995906181  Z M 4.483 12.8479969287991  L 4.483 14.8849964418722  L 11.207 14.8849964418722  L 11.207 12.8479969287991  L 4.483 12.8479969287991  Z M 4.482 8.56799795189528  L 4.482 10.6059974647294  L 11.206 10.6059974647294  L 11.206 8.56799795189528  L 4.482 8.56799795189528  Z M 0 4.28999897451339  L 0 6.32699848758653  L 15.689 6.32699848758653  L 15.689 4.28999897451339  L 0 4.28999897451339  Z M 0 0  L 0 2  L 15.689 2  L 15.689 0  L 0 0  Z M 66.576 4.2799989769038  L 65.868 6.3179984897379  L 80.698 6.3179984897379  L 80.698 4.2799989769038  L 66.576 4.2799989769038  Z M 39.974 30  L 17.93 30  L 17.93 32  L 34.434 32  C 36.4643770584231 32.0027116199386  38.4289981061445 31.2803412016025  39.974 30  Z M 22.412 21.4049948833238  L 22.412 23.441994396397  L 29.136 23.441994396397  L 29.136 21.4049948833238  L 22.412 21.4049948833238  Z M 41.77 19  C 41.3286725378434 18.404840015301  40.773937640482 17.7175759116083  40.124 17  L 22.412 17  L 22.412 19  L 41.77 19  Z M 22.413 13  L 22.413 12.8479969287991  L 22.413 15  L 40.199 15  C 40.8475938822431 14.2927331996709  41.4019966242081 13.6058000394343  41.843 13  L 22.413 13  Z M 17.93 6.32699848758653  L 42.693 6.32699848758653  C 42.4999806136849 5.61374393047526  42.2142081841432 4.92889887185608  41.843 4.28999897451339  L 17.93 4.28999897451339  L 17.93 6.32699848758653  Z M 17.93 2  L 39.974 2  C 38.4289981061445 0.73165114621162  36.4643770584231 0.00928072787558724  34.434 0  L 17.93 0  L 17.93 2  Z M 22.412 8.56799795189528  L 22.412 10.6059974647294  L 29.136 10.6059974647294  L 29.136 8.56799795189528  L 22.412 8.56799795189528  Z M 35.453 8.56799795189528  L 35.453 10.6059974647294  L 42.743 10.6059974647294  C 42.9067195052987 9.93899886797153  42.9899788803579 9.25479497357841  42.991 8.56799795189528  L 35.453 8.56799795189528  Z M 42.694 25.6829938607057  L 17.93 25.6829938607057  L 17.93 27.7209933735398  L 41.844 27.7209933735398  C 42.2143864617729 27.0813324343614  42.5001104452938 26.396267329396  42.694 25.6829938607057  Z M 59.654 6.3179984897379  L 58.947 4.2799989769038  L 44.826 4.2799989769038  L 44.826 6.3179984897379  L 59.654 6.3179984897379  Z " fill-rule="nonzero" fill="#ffffff" stroke="none" transform="matrix(1 0 0 1 416 336 )" />
  </g>
</svg>