<?xml version="1.0" encoding="utf-8"?>
<svg version="1.1" xmlns:xlink="http://www.w3.org/1999/xlink" width="29px" height="29px" xmlns="http://www.w3.org/2000/svg">
  <g transform="matrix(1 0 0 1 -418 -1947 )">
    <path d="M 14.0483658732488 0.999916454833039  C 14.0322438794211 0.999916454833039  14.0161218976195 0.999944303263573  14 1  C 6.26874934704892 1.00104045799334  0.00188409513916188 7.26874915025834  0.00188409513916188 14.9999998732209  C 0.00188409513916188 21.0242038140277  3.85561220731023 26.3729590263474  9.57 28.28  C 10.27 28.41  10.57 27.98  10.57 27.61  C 10.57 27.24  10.57 26.4  10.57 25.23  C 6.68 26.07  5.86 23.35  5.86 23.35  C 5.58645161175095 22.4928311099861  5.01072010077434 21.7642819757256  4.24 21.3  C 2.97 20.44  4.34 20.45  4.34 20.45  C 5.23895201604317 20.5769898099854  6.02881058354259 21.1121743533846  6.48 21.9  C 7.28658303163524 23.3466736752631  9.11296798627084 23.8659399858948  10.56 23.06  C 10.6164607414148 22.3504707725937  10.9292683200108 21.6857546680772  11.44 21.19  C 8.34 20.83  5.07 19.63  5.07 14.27  C 5.04732789602807 12.8778943170913  5.56322553041113 11.5308282717578  6.51 10.51  C 6.08146107748167 9.30419470969878  6.13156672936142 7.9799739100196  6.65 6.81  C 6.65 6.81  7.82 6.43  10.5 8.24  C 12.7914738591068 7.61494926116847  15.2085261408932 7.61494926116847  17.5 8.24  C 20.17 6.43  21.34 6.81  21.34 6.81  C 21.8584332706386 7.9799739100196  21.9085389225183 9.30419470969878  21.48 10.51  C 22.4267744695889 11.5308282717578  22.9426721039719 12.8778943170913  22.92 14.27  C 22.92 19.65  19.65 20.83  16.53 21.18  C 17.2062055185402 21.8653963524776  17.552654364688 22.8099253119753  17.48 23.77  C 17.48 25.64  17.48 27.15  17.48 27.61  C 17.48 28.07  17.73 28.42  18.48 28.28  C 24.1945156890696 26.3730358864533  28.0483658732488 21.0242173844826  28.0483658732488 14.999916454833  C 28.0483658732488 7.26792995720193  21.7803523708799 0.999916454833039  14.0483658732488 0.999916454833039  Z " fill-rule="nonzero" fill="#000000" stroke="none" transform="matrix(1 0 0 1 418 1947 )" />
  </g>
</svg>