<svg xmlns="http://www.w3.org/2000/svg" xmlns:xlink="http://www.w3.org/1999/xlink" width="14" height="14" version="1.1"><g><path fill="#da1e28" fill-rule="nonzero" stroke="none" d="M 14 7 C 14 3.1 10.9 0 7 0 C 3.2 0 0 3.2 0 7 C 0 10.8 3.2 14 7 14 C 10.8 14 14 10.9 14 7 Z M 6.5 8 L 6.5 3 L 7.5 3 L 7.5 8 L 6.5 8 Z M 7.8 10.4 C 7.8 10.8 7.4 11.2 7 11.2 C 6.6 11.2 6.2 10.8 6.2 10.4 C 6.2 10 6.5 9.6 7 9.6 C 7.4 9.6 7.8 10 7.8 10.4 Z" transform="matrix(1 0 0 1 -1 -1 ) matrix(1 0 0 1 1 1 )"/></g></svg>