<?xml version="1.0" encoding="utf-8"?>
<svg version="1.1" xmlns:xlink="http://www.w3.org/1999/xlink" width="16px" height="16px" xmlns="http://www.w3.org/2000/svg">
  <g>
    <path d="M 13.1764705882353 16  L 13.1764705882353 13.1764705882353  L 16 13.1764705882353  L 16 16  L 13.1764705882353 16  Z M 6.58823529411765 16  L 6.58823529411765 13.1764705882353  L 9.41176470588235 13.1764705882353  L 9.41176470588235 16  L 6.58823529411765 16  Z M 0 16  L 0 13.1764705882353  L 2.82352941176471 13.1764705882353  L 2.82352941176471 16  L 0 16  Z M 13.1764705882353 9.41176470588235  L 13.1764705882353 6.58823529411765  L 16 6.58823529411765  L 16 9.41176470588235  L 13.1764705882353 9.41176470588235  Z M 6.58823529411765 9.41176470588235  L 6.58823529411765 6.58823529411765  L 9.41176470588235 6.58823529411765  L 9.41176470588235 9.41176470588235  L 6.58823529411765 9.41176470588235  Z M 0 9.41176470588235  L 0 6.58823529411765  L 2.82352941176471 6.58823529411765  L 2.82352941176471 9.41176470588235  L 0 9.41176470588235  Z M 13.1764705882353 2.82352941176471  L 13.1764705882353 0  L 16 0  L 16 2.82352941176471  L 13.1764705882353 2.82352941176471  Z M 6.58823529411765 2.82352941176471  L 6.58823529411765 0  L 9.41176470588235 0  L 9.41176470588235 2.82352941176471  L 6.58823529411765 2.82352941176471  Z M 0 2.82352941176471  L 0 0  L 2.82352941176471 0  L 2.82352941176471 2.82352941176471  L 0 2.82352941176471  Z " fill-rule="nonzero" fill="#ffffff" stroke="none" />
  </g>
</svg>