<?xml version="1.0" encoding="utf-8"?>
<svg version="1.1" xmlns:xlink="http://www.w3.org/1999/xlink" width="18px" height="19px" xmlns="http://www.w3.org/2000/svg">
  <g transform="matrix(1 0 0 1 -1 -1 )">
    <path d="M 17.125 13.125  C 17.1294635957471 12.9587685510084  17.0609528394402 12.7989101196256  16.9375 12.6875  L 15.25 11  L 15.25 8.125  C 15.2458532832955 4.91102717961427  12.8207807737682 2.21650216902839  9.625 1.875  L 9.625 0.625  L 8.375 0.625  L 8.375 1.875  C 5.19027615371755 2.23805630299931  2.77674243900834 4.91976043045399  2.75 8.125  L 2.75 11  L 1.0625 12.6875  C 0.939047160559798 12.7989101196256  0.870536404252889 12.9587685510084  0.875 13.125  L 0.875 15  C 0.87414597003471 15.012909495954  0.873718605505728 15.0258436801302  0.873718605505728 15.0387813944943  C 0.873718605505728 15.3632486850199  1.13675131498014 15.6262813944943  1.46121860550573 15.6262813944943  C 1.47415631986981 15.6262813944943  1.48709050404606 15.6258540299653  1.5 15.625  L 5.875 15.625  C 5.875 17.3508898432212  7.27411015677877 18.75  9 18.75  C 10.7258898432212 18.75  12.125 17.3508898432212  12.125 15.625  L 16.5 15.625  C 16.512909495954 15.6258540299653  16.5258436801302 15.6262813944943  16.5387813944943 15.6262813944943  C 16.8632486850199 15.6262813944943  17.1262813944943 15.3632486850199  17.1262813944943 15.0387813944943  C 17.1262813944943 15.0258436801302  17.1258540299653 15.0129094959539  17.125 15  L 17.125 13.125  Z M 10.875 15.625  C 10.875 16.6605339059327  10.0355339059327 17.5  9 17.5  C 7.96446609406726 17.5  7.125 16.6605339059327  7.125 15.625  L 10.875 15.625  Z M 15.875 13.375  L 15.875 14  L 2.125 14  L 2.125 13.375  L 3.8125 11.6875  C 3.9359528394402 11.5760898803744  4.00446359574711 11.4162314489916  4 11.25  L 4 8.125  C 4 5.36357625084603  6.23857625084603 3.125  9 3.125  C 11.761423749154 3.125  14 5.36357625084603  14 8.125  L 14 11.25  C 13.9955364042529 11.4162314489916  14.0640471605598 11.5760898803744  14.1875 11.6875  L 15.875 13.375  Z " fill-rule="nonzero" fill="#ffffff" stroke="none" transform="matrix(1 0 0 1 1 1 )" />
  </g>
</svg>