<?xml version="1.0" encoding="utf-8"?>
<svg version="1.1" xmlns:xlink="http://www.w3.org/1999/xlink" width="18px" height="18px" xmlns="http://www.w3.org/2000/svg">
  <g transform="matrix(1 0 0 1 -1 -1 )">
    <path d="M 17.75 9  C 17.75 4.16750843898056  13.8324915610194 0.25  9 0.25  C 4.16750843898056 0.25  0.25 4.16750843898056  0.25 9  C 0.25 13.8324915610194  4.16750843898056 17.75  9 17.75  C 13.8324915610194 17.75  17.75 13.8324915610194  17.75 9  Z M 16.5 9  C 16.5 13.142135623731  13.142135623731 16.5  9 16.5  C 4.85786437626905 16.5  1.5 13.142135623731  1.5 9  C 1.5 4.85786437626905  4.85786437626905 1.5  9 1.5  C 13.142135623731 1.5  16.5 4.85786437626905  16.5 9  Z M 8 14  C 8 13.44  8.44 13  9 13  C 9.56 13  10 13.44  10 14  C 10 14.56  9.56 15  9 15  C 8.44 15  8 14.56  8 14  Z M 9.625 4.00000697545772  L 8.6875 4.00000697545772  C 8.68541434475245 4.00000232515401  8.68332868496805 4  8.6812430245362 4  C 7.13139394532352 4  5.8749930245362 5.2563998252909  5.8749930245362 6.80624755314022  C 5.8749930245362 6.80833321175389  5.87499534969224 6.810418869719  5.875 6.81250452314836  L 5.875 7.12500425066955  L 7.125 7.12500425066955  L 7.125 6.81250452314836  C 7.125 5.94956035396723  7.82455507838938 5.25000588554245  8.6875 5.25000588554245  L 9.625 5.25000588554245  C 10.4879449216106 5.25000588554245  11.1875 5.94956035396723  11.1875 6.81250452314836  C 11.1875 7.6754486923295  10.4879449216106 8.37500316075428  9.625 8.37500316075428  L 8.375 8.37500316075428  L 8.375 11.1875007084449  L 9.625 11.1875007084449  L 9.625 9.62500207083902  C 11.1783008588991 9.62500207083902  12.4375 8.36580402767441  12.4375 6.81250452314836  C 12.4375 5.25920501862232  11.1783008588991 4.00000697545772  9.625 4.00000697545772  Z " fill-rule="nonzero" fill="#f4f4f4" stroke="none" transform="matrix(1 0 0 1 1 1 )" />
  </g>
</svg>