<?xml version="1.0" encoding="utf-8"?>
<svg version="1.1" xmlns:xlink="http://www.w3.org/1999/xlink" width="18px" height="18px" xmlns="http://www.w3.org/2000/svg">
  <g transform="matrix(1 0 0 1 -1 -1 )">
    <path d="M 17.75 9  C 17.75 4.16750843898056  13.8324915610194 0.25  9 0.25  C 4.16750843898056 0.25  0.25 4.16750843898056  0.25 9  C 0.25 13.8324915610194  4.16750843898056 17.75  9 17.75  C 13.8324915610194 17.75  17.75 13.8324915610194  17.75 9  Z M 5.25 15.49375  L 5.25 15.4875  L 5.25 14.2375  C 5.1928899749589 13.139333039714  6.02781802651198 12.1986474349642  7.125 12.125  L 10.875 12.125  C 11.9747474598985 12.1986361431091  12.8106536906405 13.1432101838475  12.75 14.24375  L 12.75 15.49375  C 10.4322893228428 16.8438956323034  7.56771067715721 16.8438956323034  5.25 15.49375  Z M 14 14.5625  L 14 14.575  L 14 14.19375  C 14.0354542339756 12.4212573971274  12.6464206960613 10.9461037798624  10.875 10.875  L 7.125 10.875  C 5.35208127524166 10.9428141285467  3.96117205377145 12.4199597217481  4 14.19375  L 4 14.5625  C 2.40924808316113 13.1396882314441  1.5 11.1065477090844  1.5 8.97233005625053  C 1.5 4.83019443251958  4.85786437626905 1.47233005625053  9 1.47233005625053  C 13.142135623731 1.47233005625053  16.5 4.83019443251958  16.5 8.97233005625053  C 16.5 11.1065477090844  15.5907519168389 13.1396882314441  14 14.5625  Z M 12.125 6.5  C 12.125 4.77411015677878  10.7258898432212 3.375  9 3.375  C 7.27411015677878 3.375  5.875 4.77411015677878  5.875 6.5  C 5.875 8.22588984322122  7.27411015677878 9.625  9 9.625  C 10.7258898432212 9.625  12.125 8.22588984322122  12.125 6.5  Z M 10.875 6.5  C 10.875 7.53553390593274  10.0355339059327 8.375  9 8.375  C 7.96446609406726 8.375  7.125 7.53553390593274  7.125 6.5  C 7.125 5.46446609406726  7.96446609406726 4.625  9 4.625  C 10.0355339059327 4.625  10.875 5.46446609406726  10.875 6.5  Z " fill-rule="nonzero" fill="#ffffff" stroke="none" transform="matrix(1 0 0 1 1 1 )" />
  </g>
</svg>