<?xml version="1.0" encoding="utf-8"?>
<svg version="1.1" xmlns:xlink="http://www.w3.org/1999/xlink" width="14px" height="14px" xmlns="http://www.w3.org/2000/svg">
  <g transform="matrix(1 0 0 1 -3 -3 )">
    <path d="M 5.75 2.625  L 5.75 0.125  L 8.25 0.125  L 8.25 2.625  L 5.75 2.625  Z M 0.125 2.625  L 0.125 0.125  L 2.625 0.125  L 2.625 2.625  L 0.125 2.625  Z M 11.375 2.625  L 11.375 0.125  L 13.875 0.125  L 13.875 2.625  L 11.375 2.625  Z M 5.75 8.25  L 5.75 5.75  L 8.25 5.75  L 8.25 8.25  L 5.75 8.25  Z M 0.125 8.25  L 0.125 5.75  L 2.625 5.75  L 2.625 8.25  L 0.125 8.25  Z M 11.375 8.25  L 11.375 5.75  L 13.875 5.75  L 13.875 8.25  L 11.375 8.25  Z M 5.75 13.875  L 5.75 11.375  L 8.25 11.375  L 8.25 13.875  L 5.75 13.875  Z M 0.125 13.875  L 0.125 11.375  L 2.625 11.375  L 2.625 13.875  L 0.125 13.875  Z M 11.375 13.875  L 11.375 11.375  L 13.875 11.375  L 13.875 13.875  L 11.375 13.875  Z " fill-rule="nonzero" fill="#ffffff" stroke="none" transform="matrix(1 0 0 1 3 3 )" />
  </g>
</svg>