<?xml version="1.0" encoding="utf-8"?>
<svg version="1.1" xmlns:xlink="http://www.w3.org/1999/xlink" width="16px" height="16px" viewBox="0 0  16 16" xmlns="http://www.w3.org/2000/svg">
  <path d="M 1.5 2  A 0.5 0.5 0 0 1 2 1.5 L 14 1.5  A 0.5 0.5 0 0 1 14.5 2 L 14.5 14  A 0.5 0.5 0 0 1 14 14.5 L 2 14.5  A 0.5 0.5 0 0 1 1.5 14 L 1.5 2  Z " fill-rule="nonzero" fill="#ffffff" stroke="none" fill-opacity="0" />
  <path d="M 1 2  A 1 1 0 0 1 2 1 L 14 1  A 1 1 0 0 1 15 2 L 15 14  A 1 1 0 0 1 14 15 L 2 15  A 1 1 0 0 1 1 14 L 1 2  Z " stroke-width="2" stroke="#0f62fe" fill="none" />
</svg>