<svg xmlns="http://www.w3.org/2000/svg" xmlns:xlink="http://www.w3.org/1999/xlink" width="16" height="16" version="1.1" viewBox="0 0 16 16"><path fill="#fff" fill-opacity="0" fill-rule="nonzero" stroke="none" d="M 1.5 2 A 0.5 0.5 0 0 1 2 1.5 L 14 1.5 A 0.5 0.5 0 0 1 14.5 2 L 14.5 14 A 0.5 0.5 0 0 1 14 14.5 L 2 14.5 A 0.5 0.5 0 0 1 1.5 14 L 1.5 2 Z"/><path fill="none" stroke="#0f62fe" stroke-width="2" d="M 1 2 A 1 1 0 0 1 2 1 L 14 1 A 1 1 0 0 1 15 2 L 15 14 A 1 1 0 0 1 14 15 L 2 15 A 1 1 0 0 1 1 14 L 1 2 Z"/></svg>