<?xml version="1.0" encoding="utf-8"?>
<svg version="1.1" xmlns:xlink="http://www.w3.org/1999/xlink" width="16px" height="16px" viewBox="0 0  16 16" xmlns="http://www.w3.org/2000/svg">
  <path d="M 0.5 2  A 1.5 1.5 0 0 1 2 0.5 L 14 0.5  A 1.5 1.5 0 0 1 15.5 2 L 15.5 14  A 1.5 1.5 0 0 1 14 15.5 L 2 15.5  A 1.5 1.5 0 0 1 0.5 14 L 0.5 2  Z " fill-rule="nonzero" fill="#ffffff" stroke="none" fill-opacity="0" />
  <path d="M 0.5 2  A 1.5 1.5 0 0 1 2 0.5 L 14 0.5  A 1.5 1.5 0 0 1 15.5 2 L 15.5 14  A 1.5 1.5 0 0 1 14 15.5 L 2 15.5  A 1.5 1.5 0 0 1 0.5 14 L 0.5 2  Z " stroke-width="1" stroke="#c6c6c6" fill="none" />
</svg>