<svg xmlns="http://www.w3.org/2000/svg" xmlns:xlink="http://www.w3.org/1999/xlink" width="16" height="16" version="1.1" viewBox="0 0 16 16"><path fill="#fff" fill-opacity="0" fill-rule="nonzero" stroke="none" d="M 0.5 2 A 1.5 1.5 0 0 1 2 0.5 L 14 0.5 A 1.5 1.5 0 0 1 15.5 2 L 15.5 14 A 1.5 1.5 0 0 1 14 15.5 L 2 15.5 A 1.5 1.5 0 0 1 0.5 14 L 0.5 2 Z"/><path fill="none" stroke="#161616" stroke-width="1" d="M 0.5 2 A 1.5 1.5 0 0 1 2 0.5 L 14 0.5 A 1.5 1.5 0 0 1 15.5 2 L 15.5 14 A 1.5 1.5 0 0 1 14 15.5 L 2 15.5 A 1.5 1.5 0 0 1 0.5 14 L 0.5 2 Z"/></svg>