<?xml version="1.0" encoding="utf-8"?>
<svg version="1.1" xmlns:xlink="http://www.w3.org/1999/xlink" width="2px" height="12px" xmlns="http://www.w3.org/2000/svg">
  <g transform="matrix(1 0 0 1 -807 -18 )">
    <path d="M 2 1  C 2 0.4477152502  1.5522847498 0  1 0  C 0.4477152502 0  0 0.4477152502  0 1  C 0 1.5522847498  0.4477152502 2  1 2  C 1.5522847498 2  2 1.5522847498  2 1  Z M 2 6  C 2 5.4477152502  1.5522847498 5  1 5  C 0.4477152502 5  0 5.4477152502  0 6  C 0 6.5522847498  0.4477152502 7  1 7  C 1.5522847498 7  2 6.5522847498  2 6  Z M 1 10  C 0.4477152502 10  0 10.4477152502  0 11  C 0 11.5522847498  0.4477152502 12  1 12  C 1.5522847498 12  2 11.5522847498  2 11  C 2 10.4477152502  1.5522847498 10  1 10  Z " fill-rule="nonzero" fill="#161616" stroke="none" transform="matrix(1 0 0 1 807 18 )" />
  </g>
</svg>