<?xml version="1.0" encoding="utf-8"?>
<svg version="1.1" xmlns:xlink="http://www.w3.org/1999/xlink" width="14px" height="13px" xmlns="http://www.w3.org/2000/svg">
  <g transform="matrix(1 0 0 1 -629 -17 )">
    <path d="M 0 13  L 0 12  L 14 12  L 14 13  L 0 13  Z M 4.2 11  L 11.7 3.5  C 12.1 3.1  12.1 2.5  11.7 2.1  L 9.9 0.3  C 9.5 -0.1  8.9 -0.1  8.5 0.3  L 1 7.8  L 1 11  L 4.2 11  Z M 7.7 2.5  L 9.2 1  L 11 2.8  L 9.5 4.3  L 7.7 2.5  Z M 3.8 10  L 2 10  L 2 8.2  L 7 3.2  L 8.8 5  L 3.8 10  Z " fill-rule="nonzero" fill="#161616" stroke="none" transform="matrix(1 0 0 1 629 17 )" />
  </g>
</svg>