<svg xmlns="http://www.w3.org/2000/svg" xmlns:xlink="http://www.w3.org/1999/xlink" width="18" height="18" version="1.1" viewBox="564 162 18 18"><path fill="#fff" fill-opacity="0" fill-rule="nonzero" stroke="none" d="M 573 162 C 578.04 162 582 165.96 582 171 C 582 176.04 578.04 180 573 180 C 567.96 180 564 176.04 564 171 C 564 165.96 567.96 162 573 162 Z"/><path fill="none" stroke="#161616" stroke-width="1" d="M 573 162.5 C 577.76 162.5 581.5 166.24 581.5 171 C 581.5 175.76 577.76 179.5 573 179.5 C 568.24 179.5 564.5 175.76 564.5 171 C 564.5 166.24 568.24 162.5 573 162.5 Z"/><path fill="#161616" fill-rule="nonzero" stroke="none" d="M 573 175.5 C 570.48 175.5 568.5 173.52 568.5 171 C 568.5 168.48 570.48 166.5 573 166.5 C 575.52 166.5 577.5 168.48 577.5 171 C 577.5 173.52 575.52 175.5 573 175.5"/></svg>