<svg xmlns="http://www.w3.org/2000/svg" xmlns:xlink="http://www.w3.org/1999/xlink" width="18" height="18" version="1.1" viewBox="564 136 18 18"><path fill="#fff" fill-opacity="0" fill-rule="nonzero" stroke="none" d="M 573 136 C 578.04 136 582 139.96 582 145 C 582 150.04 578.04 154 573 154 C 567.96 154 564 150.04 564 145 C 564 139.96 567.96 136 573 136 Z"/><path fill="none" stroke="#161616" stroke-width="1" d="M 573 136.5 C 577.76 136.5 581.5 140.24 581.5 145 C 581.5 149.76 577.76 153.5 573 153.5 C 568.24 153.5 564.5 149.76 564.5 145 C 564.5 140.24 568.24 136.5 573 136.5 Z"/><path fill="#161616" fill-rule="nonzero" stroke="none" d="M 573 149.5 C 570.48 149.5 568.5 147.52 568.5 145 C 568.5 142.48 570.48 140.5 573 140.5 C 575.52 140.5 577.5 142.48 577.5 145 C 577.5 147.52 575.52 149.5 573 149.5"/></svg>