<?xml version="1.0" encoding="utf-8"?>
<svg version="1.1" xmlns:xlink="http://www.w3.org/1999/xlink" width="18px" height="18px" viewBox="836 6398  18 18" xmlns="http://www.w3.org/2000/svg">
  <path d="M 845 6398  C 850.04 6398  854 6401.96  854 6407  C 854 6412.04  850.04 6416  845 6416  C 839.96 6416  836 6412.04  836 6407  C 836 6401.96  839.96 6398  845 6398  Z " fill-rule="nonzero" fill="#ffffff" stroke="none" fill-opacity="0" />
  <path d="M 845 6398.5  C 849.76 6398.5  853.5 6402.24  853.5 6407  C 853.5 6411.76  849.76 6415.5  845 6415.5  C 840.24 6415.5  836.5 6411.76  836.5 6407  C 836.5 6402.24  840.24 6398.5  845 6398.5  Z " stroke-width="1" stroke="#161616" fill="none" />
  <path d="M 845 6411.5  C 842.48 6411.5  840.5 6409.52  840.5 6407  C 840.5 6404.48  842.48 6402.5  845 6402.5  C 847.52 6402.5  849.5 6404.48  849.5 6407  C 849.5 6409.52  847.52 6411.5  845 6411.5  " fill-rule="nonzero" fill="#161616" stroke="none" />
</svg>