<?xml version="1.0" encoding="utf-8"?>
<svg version="1.1" xmlns:xlink="http://www.w3.org/1999/xlink" width="18px" height="18px" viewBox="564 108  18 18" xmlns="http://www.w3.org/2000/svg">
  <path d="M 573 108  C 578.04 108  582 111.96  582 117  C 582 122.04  578.04 126  573 126  C 567.96 126  564 122.04  564 117  C 564 111.96  567.96 108  573 108  Z " fill-rule="nonzero" fill="#ffffff" stroke="none" fill-opacity="0" />
  <path d="M 573 108.5  C 577.76 108.5  581.5 112.24  581.5 117  C 581.5 121.76  577.76 125.5  573 125.5  C 568.24 125.5  564.5 121.76  564.5 117  C 564.5 112.24  568.24 108.5  573 108.5  Z " stroke-width="1" stroke="#161616" fill="none" />
  <path d="M 573 121.5  C 570.48 121.5  568.5 119.52  568.5 117  C 568.5 114.48  570.48 112.5  573 112.5  C 575.52 112.5  577.5 114.48  577.5 117  C 577.5 119.52  575.52 121.5  573 121.5  " fill-rule="nonzero" fill="#161616" stroke="none" />
</svg>