<?xml version="1.0" encoding="utf-8"?>
<svg version="1.1" xmlns:xlink="http://www.w3.org/1999/xlink" width="18px" height="18px" viewBox="836 6252  18 18" xmlns="http://www.w3.org/2000/svg">
  <path d="M 845 6252  C 850.04 6252  854 6255.96  854 6261  C 854 6266.04  850.04 6270  845 6270  C 839.96 6270  836 6266.04  836 6261  C 836 6255.96  839.96 6252  845 6252  Z " fill-rule="nonzero" fill="#ffffff" stroke="none" fill-opacity="0" />
  <path d="M 845 6252.5  C 849.76 6252.5  853.5 6256.24  853.5 6261  C 853.5 6265.76  849.76 6269.5  845 6269.5  C 840.24 6269.5  836.5 6265.76  836.5 6261  C 836.5 6256.24  840.24 6252.5  845 6252.5  Z " stroke-width="1" stroke="#161616" fill="none" />
  <path d="M 845 6265.5  C 842.48 6265.5  840.5 6263.52  840.5 6261  C 840.5 6258.48  842.48 6256.5  845 6256.5  C 847.52 6256.5  849.5 6258.48  849.5 6261  C 849.5 6263.52  847.52 6265.5  845 6265.5  " fill-rule="nonzero" fill="#161616" stroke="none" />
</svg>