<?xml version="1.0" encoding="utf-8"?>
<svg version="1.1" xmlns:xlink="http://www.w3.org/1999/xlink" width="18px" height="18px" viewBox="836 6344  18 18" xmlns="http://www.w3.org/2000/svg">
  <path d="M 845 6344  C 850.04 6344  854 6347.96  854 6353  C 854 6358.04  850.04 6362  845 6362  C 839.96 6362  836 6358.04  836 6353  C 836 6347.96  839.96 6344  845 6344  Z " fill-rule="nonzero" fill="#ffffff" stroke="none" fill-opacity="0" />
  <path d="M 845 6344.5  C 849.76 6344.5  853.5 6348.24  853.5 6353  C 853.5 6357.76  849.76 6361.5  845 6361.5  C 840.24 6361.5  836.5 6357.76  836.5 6353  C 836.5 6348.24  840.24 6344.5  845 6344.5  Z " stroke-width="1" stroke="#161616" fill="none" />
  <path d="M 845 6357.5  C 842.48 6357.5  840.5 6355.52  840.5 6353  C 840.5 6350.48  842.48 6348.5  845 6348.5  C 847.52 6348.5  849.5 6350.48  849.5 6353  C 849.5 6355.52  847.52 6357.5  845 6357.5  " fill-rule="nonzero" fill="#161616" stroke="none" />
</svg>