<svg xmlns="http://www.w3.org/2000/svg" xmlns:xlink="http://www.w3.org/1999/xlink" width="18" height="18" version="1.1" viewBox="564 80 18 18"><path fill="#fff" fill-opacity="0" fill-rule="nonzero" stroke="none" d="M 573 80 C 578.04 80 582 83.96 582 89 C 582 94.04 578.04 98 573 98 C 567.96 98 564 94.04 564 89 C 564 83.96 567.96 80 573 80 Z"/><path fill="none" stroke="#161616" stroke-width="1" d="M 573 80.5 C 577.76 80.5 581.5 84.24 581.5 89 C 581.5 93.76 577.76 97.5 573 97.5 C 568.24 97.5 564.5 93.76 564.5 89 C 564.5 84.24 568.24 80.5 573 80.5 Z"/><path fill="#161616" fill-rule="nonzero" stroke="none" d="M 573 93.5 C 570.48 93.5 568.5 91.52 568.5 89 C 568.5 86.48 570.48 84.5 573 84.5 C 575.52 84.5 577.5 86.48 577.5 89 C 577.5 91.52 575.52 93.5 573 93.5"/></svg>