<?xml version="1.0" encoding="utf-8"?>
<svg version="1.1" xmlns:xlink="http://www.w3.org/1999/xlink" width="18px" height="18px" viewBox="836 6316  18 18" xmlns="http://www.w3.org/2000/svg">
  <path d="M 845 6316  C 850.04 6316  854 6319.96  854 6325  C 854 6330.04  850.04 6334  845 6334  C 839.96 6334  836 6330.04  836 6325  C 836 6319.96  839.96 6316  845 6316  Z " fill-rule="nonzero" fill="#ffffff" stroke="none" fill-opacity="0" />
  <path d="M 845 6316.5  C 849.76 6316.5  853.5 6320.24  853.5 6325  C 853.5 6329.76  849.76 6333.5  845 6333.5  C 840.24 6333.5  836.5 6329.76  836.5 6325  C 836.5 6320.24  840.24 6316.5  845 6316.5  Z " stroke-width="1" stroke="#161616" fill="none" />
  <path d="M 845 6329.5  C 842.48 6329.5  840.5 6327.52  840.5 6325  C 840.5 6322.48  842.48 6320.5  845 6320.5  C 847.52 6320.5  849.5 6322.48  849.5 6325  C 849.5 6327.52  847.52 6329.5  845 6329.5  " fill-rule="nonzero" fill="#161616" stroke="none" />
</svg>