<?xml version="1.0" encoding="utf-8"?>
<svg version="1.1" xmlns:xlink="http://www.w3.org/1999/xlink" width="14px" height="14px" xmlns="http://www.w3.org/2000/svg">
  <g transform="matrix(1 0 0 1 -1 -1 )">
    <path d="M 14 7  C 14 3.1  10.9 0  7 0  C 3.2 0  0 3.2  0 7  C 0 10.8  3.2 14  7 14  C 10.8 14  14 10.9  14 7  Z M 6.5 8  L 6.5 3  L 7.5 3  L 7.5 8  L 6.5 8  Z M 7.8 10.4  C 7.8 10.8  7.4 11.2  7 11.2  C 6.6 11.2  6.2 10.8  6.2 10.4  C 6.2 10  6.5 9.6  7 9.6  C 7.4 9.6  7.8 10  7.8 10.4  Z " fill-rule="nonzero" fill="#da1e28" stroke="none" transform="matrix(1 0 0 1 1 1 )" />
  </g>
</svg>