<?xml version="1.0" encoding="utf-8"?>
<svg version="1.1" xmlns:xlink="http://www.w3.org/1999/xlink" width="16px" height="16px" viewBox="512 679  16 16" xmlns="http://www.w3.org/2000/svg">
  <path d="M 513.5 681  A 0.5 0.5 0 0 1 514 680.5 L 526 680.5  A 0.5 0.5 0 0 1 526.5 681 L 526.5 693  A 0.5 0.5 0 0 1 526 693.5 L 514 693.5  A 0.5 0.5 0 0 1 513.5 693 L 513.5 681  Z " fill-rule="nonzero" fill="#ffffff" stroke="none" fill-opacity="0" />
  <path d="M 513 681  A 1 1 0 0 1 514 680 L 526 680  A 1 1 0 0 1 527 681 L 527 693  A 1 1 0 0 1 526 694 L 514 694  A 1 1 0 0 1 513 693 L 513 681  Z " stroke-width="2" stroke="#0f62fe" fill="none" />
</svg>