<?xml version="1.0" encoding="utf-8"?>
<svg version="1.1" xmlns:xlink="http://www.w3.org/1999/xlink" width="16px" height="16px" viewBox="512 651  16 16" xmlns="http://www.w3.org/2000/svg">
  <path d="M 513.5 653  A 0.5 0.5 0 0 1 514 652.5 L 526 652.5  A 0.5 0.5 0 0 1 526.5 653 L 526.5 665  A 0.5 0.5 0 0 1 526 665.5 L 514 665.5  A 0.5 0.5 0 0 1 513.5 665 L 513.5 653  Z " fill-rule="nonzero" fill="#ffffff" stroke="none" fill-opacity="0" />
  <path d="M 513 653  A 1 1 0 0 1 514 652 L 526 652  A 1 1 0 0 1 527 653 L 527 665  A 1 1 0 0 1 526 666 L 514 666  A 1 1 0 0 1 513 665 L 513 653  Z " stroke-width="2" stroke="#0f62fe" fill="none" />
</svg>