<svg xmlns="http://www.w3.org/2000/svg" xmlns:xlink="http://www.w3.org/1999/xlink" width="18" height="18" version="1.1" viewBox="512 677 18 18"><path fill="#fff" fill-opacity="0" fill-rule="nonzero" stroke="none" d="M 521 677 C 526.04 677 530 680.96 530 686 C 530 691.04 526.04 695 521 695 C 515.96 695 512 691.04 512 686 C 512 680.96 515.96 677 521 677 Z"/><path fill="none" stroke="#161616" stroke-width="1" d="M 521 677.5 C 525.76 677.5 529.5 681.24 529.5 686 C 529.5 690.76 525.76 694.5 521 694.5 C 516.24 694.5 512.5 690.76 512.5 686 C 512.5 681.24 516.24 677.5 521 677.5 Z"/><path fill="#161616" fill-rule="nonzero" stroke="none" d="M 521 690.5 C 518.48 690.5 516.5 688.52 516.5 686 C 516.5 683.48 518.48 681.5 521 681.5 C 523.52 681.5 525.5 683.48 525.5 686 C 525.5 688.52 523.52 690.5 521 690.5"/></svg>