<?xml version="1.0" encoding="utf-8"?>
<svg version="1.1" xmlns:xlink="http://www.w3.org/1999/xlink" width="18px" height="18px" viewBox="512 621  18 18" xmlns="http://www.w3.org/2000/svg">
  <path d="M 521 621  C 526.04 621  530 624.96  530 630  C 530 635.04  526.04 639  521 639  C 515.96 639  512 635.04  512 630  C 512 624.96  515.96 621  521 621  Z " fill-rule="nonzero" fill="#ffffff" stroke="none" fill-opacity="0" />
  <path d="M 521 621.5  C 525.76 621.5  529.5 625.24  529.5 630  C 529.5 634.76  525.76 638.5  521 638.5  C 516.24 638.5  512.5 634.76  512.5 630  C 512.5 625.24  516.24 621.5  521 621.5  Z " stroke-width="1" stroke="#161616" fill="none" />
  <path d="M 521 634.5  C 518.48 634.5  516.5 632.52  516.5 630  C 516.5 627.48  518.48 625.5  521 625.5  C 523.52 625.5  525.5 627.48  525.5 630  C 525.5 632.52  523.52 634.5  521 634.5  " fill-rule="nonzero" fill="#161616" stroke="none" />
</svg>