<?xml version="1.0" encoding="utf-8"?>
<svg version="1.1" xmlns:xlink="http://www.w3.org/1999/xlink" width="18px" height="18px" viewBox="512 677  18 18" xmlns="http://www.w3.org/2000/svg">
  <path d="M 521 677  C 526.04 677  530 680.96  530 686  C 530 691.04  526.04 695  521 695  C 515.96 695  512 691.04  512 686  C 512 680.96  515.96 677  521 677  Z " fill-rule="nonzero" fill="#ffffff" stroke="none" fill-opacity="0" />
  <path d="M 521 677.5  C 525.76 677.5  529.5 681.24  529.5 686  C 529.5 690.76  525.76 694.5  521 694.5  C 516.24 694.5  512.5 690.76  512.5 686  C 512.5 681.24  516.24 677.5  521 677.5  Z " stroke-width="1" stroke="#161616" fill="none" />
  <path d="M 521 690.5  C 518.48 690.5  516.5 688.52  516.5 686  C 516.5 683.48  518.48 681.5  521 681.5  C 523.52 681.5  525.5 683.48  525.5 686  C 525.5 688.52  523.52 690.5  521 690.5  " fill-rule="nonzero" fill="#161616" stroke="none" />
</svg>