<?xml version="1.0" encoding="utf-8"?>
<svg version="1.1" xmlns:xlink="http://www.w3.org/1999/xlink" width="14px" height="14px" xmlns="http://www.w3.org/2000/svg">
  <g transform="matrix(1 0 0 1 -961 -607 )">
    <path d="M 14 7  C 14 3.13400675118445  10.8659932488156 0  7 0  C 3.13400675118445 0  0 3.13400675118445  0 7  C 0 10.8659932488156  3.13400675118445 14  7 14  C 10.8659932488156 14  14 10.8659932488156  14 7  Z M 13 7  C 13 10.3137084989848  10.3137084989848 13  7 13  C 3.68629150101524 13  0.999999999999999 10.3137084989848  0.999999999999999 7  C 0.999999999999999 3.68629150101524  3.68629150101524 0.999999999999999  7 0.999999999999999  C 10.3137084989848 0.999999999999999  13 3.68629150101524  13 7  Z " fill-rule="nonzero" fill="#c6c6c6" stroke="none" transform="matrix(1 0 0 1 961 607 )" />
  </g>
</svg>