<?xml version="1.0" encoding="utf-8"?>
<svg version="1.1" xmlns:xlink="http://www.w3.org/1999/xlink" width="14px" height="14px" xmlns="http://www.w3.org/2000/svg">
  <g transform="matrix(1 0 0 1 -449 -607 )">
    <path d="M 14 7  C 14 3.13400675118444  10.8659932488156 0  7 0  C 3.13400675118444 0  0 3.13400675118444  0 7  C 0 10.8659932488155  3.13400675118444 14  7 14  C 10.8659932488156 14  14 10.8659932488155  14 7  Z M 13 7  C 13 10.3137084989847  10.3137084989848 13  7 13  C 3.68629150101523 13  1 10.3137084989847  1 7  C 1 3.68629150101523  3.68629150101523 1  7 1  C 10.3137084989848 1  13 3.68629150101523  13 7  Z M 10.5 5.28999999999999  L 6 9.75  L 3.5 7.26999999999998  L 4.295 6.48500000000001  L 6 8.17500000000001  L 9.70500000000001 4.5  L 10.5 5.28999999999999  Z " fill-rule="nonzero" fill="#0f62fe" stroke="none" transform="matrix(1 0 0 1 449 607 )" />
  </g>
</svg>