<svg xmlns="http://www.w3.org/2000/svg" xmlns:xlink="http://www.w3.org/1999/xlink" width="16" height="18" version="1.1"><g><path fill="#161616" fill-rule="nonzero" stroke="none" d="M 8 14.625 L 14.25 8.375 L 13.36875 7.49375000000001 L 8.625 12.23125 L 8.625 0.25 L 7.375 0.25 L 7.375 12.23125 L 2.63125000000002 7.49375000000001 L 1.75 8.375 L 8 14.625 Z M 15.5 14 L 14.25 14 L 14.25 16.5 L 1.75 16.5 L 1.75 14 L 0.5 14 L 0.5 16.5 C 0.5 17.1903559372885 1.05964406271153 17.75 1.75 17.75 L 14.25 17.75 C 14.9403559372885 17.75 15.5 17.1903559372885 15.5 16.5 L 15.5 14 Z" transform="matrix(1 0 0 1 -310 -137 ) matrix(1 0 0 1 310 137 )"/></g></svg>