<?xml version="1.0" encoding="utf-8"?>
<svg version="1.1" xmlns:xlink="http://www.w3.org/1999/xlink" width="18px" height="18px" xmlns="http://www.w3.org/2000/svg">
  <g transform="matrix(1 0 0 1 -415 -15 )">
    <path d="M 16.86875 17.75  L 17.75 16.86875  L 13.03125 12.125  C 14.053498851915 10.8915821980999  14.6129297317928 9.33990107650712  14.6129297317928 7.73792973179284  C 14.6129297317928 3.94097207670613  11.5348873868795 0.862929731792839  7.73792973179284 0.862929731792839  C 3.94097207670613 0.862929731792839  0.862929731792839 3.94097207670613  0.862929731792839 7.73792973179284  C 0.862929731792839 11.5348873868795  3.94097207670613 14.6129297317928  7.73792973179284 14.6129297317928  C 9.33990107650713 14.6129297317928  10.8915821980999 14.053498851915  12.125 13.03125  L 16.86875 17.75  Z M 7.75 13.375  C 4.64339828220178 13.375  2.125 10.8566017177982  2.125 7.75  C 2.125 4.64339828220179  4.64339828220179 2.125  7.75 2.125  C 10.8566017177982 2.125  13.375 4.64339828220179  13.375 7.75  C 13.375 10.8566017177982  10.8566017177982 13.375  7.75 13.375  Z " fill-rule="nonzero" fill="#f4f4f4" stroke="none" transform="matrix(1 0 0 1 415 15 )" />
  </g>
</svg>