<?xml version="1.0" encoding="utf-8"?>
<svg version="1.1" xmlns:xlink="http://www.w3.org/1999/xlink" width="18px" height="18px" xmlns="http://www.w3.org/2000/svg">
  <defs>
    <mask fill="white" id="clip101">
      <path d="M 17.1 18  L 18 17.1  L 12.4714285714286 11.5714285714286  C 14.9142857142857 8.61428571428572  14.5285714285714 4.11428571428572  11.5714285714286 1.67142857142857  C 8.61428571428572 -0.771428571428564  4.11428571428572 -0.385714285714282  1.67142857142857 2.57142857142857  C -0.771428571428573 5.52857142857142  -0.385714285714282 10.0285714285714  2.57142857142857 12.4714285714286  C 5.14285714285714 14.6571428571428  9 14.6571428571428  11.5714285714286 12.4714285714286  L 17.1 18  Z M 7.07142857142857 12.8571428571429  C 3.85714285714286 12.8571428571429  1.28571428571429 10.2857142857143  1.28571428571429 7.07142857142857  C 1.28571428571429 3.85714285714286  3.85714285714286 1.28571428571429  7.07142857142857 1.28571428571429  C 10.2857142857143 1.28571428571429  12.8571428571429 3.85714285714286  12.8571428571429 7.07142857142857  C 12.8571428571429 10.2857142857143  10.2857142857143 12.8571428571429  7.07142857142857 12.8571428571429  Z " fill-rule="evenodd" />
    </mask>
  </defs>
  <g transform="matrix(1 0 0 1 -15 -15 )">
    <path d="M 17.1 18  L 18 17.1  L 12.4714285714286 11.5714285714286  C 14.9142857142857 8.61428571428572  14.5285714285714 4.11428571428572  11.5714285714286 1.67142857142857  C 8.61428571428572 -0.771428571428564  4.11428571428572 -0.385714285714282  1.67142857142857 2.57142857142857  C -0.771428571428573 5.52857142857142  -0.385714285714282 10.0285714285714  2.57142857142857 12.4714285714286  C 5.14285714285714 14.6571428571428  9 14.6571428571428  11.5714285714286 12.4714285714286  L 17.1 18  Z M 7.07142857142857 12.8571428571429  C 3.85714285714286 12.8571428571429  1.28571428571429 10.2857142857143  1.28571428571429 7.07142857142857  C 1.28571428571429 3.85714285714286  3.85714285714286 1.28571428571429  7.07142857142857 1.28571428571429  C 10.2857142857143 1.28571428571429  12.8571428571429 3.85714285714286  12.8571428571429 7.07142857142857  C 12.8571428571429 10.2857142857143  10.2857142857143 12.8571428571429  7.07142857142857 12.8571428571429  Z " fill-rule="nonzero" fill="#ffffff" stroke="none" transform="matrix(1 0 0 1 15 15 )" />
    <path d="M 17.1 18  L 18 17.1  L 12.4714285714286 11.5714285714286  C 14.9142857142857 8.61428571428572  14.5285714285714 4.11428571428572  11.5714285714286 1.67142857142857  C 8.61428571428572 -0.771428571428564  4.11428571428572 -0.385714285714282  1.67142857142857 2.57142857142857  C -0.771428571428573 5.52857142857142  -0.385714285714282 10.0285714285714  2.57142857142857 12.4714285714286  C 5.14285714285714 14.6571428571428  9 14.6571428571428  11.5714285714286 12.4714285714286  L 17.1 18  Z " stroke-width="2" stroke="#ffffff" fill="none" transform="matrix(1 0 0 1 15 15 )" mask="url(#clip101)" />
    <path d="M 7.07142857142857 12.8571428571429  C 3.85714285714286 12.8571428571429  1.28571428571429 10.2857142857143  1.28571428571429 7.07142857142857  C 1.28571428571429 3.85714285714286  3.85714285714286 1.28571428571429  7.07142857142857 1.28571428571429  C 10.2857142857143 1.28571428571429  12.8571428571429 3.85714285714286  12.8571428571429 7.07142857142857  C 12.8571428571429 10.2857142857143  10.2857142857143 12.8571428571429  7.07142857142857 12.8571428571429  Z " stroke-width="2" stroke="#ffffff" fill="none" transform="matrix(1 0 0 1 15 15 )" mask="url(#clip101)" />
  </g>
</svg>