<svg xmlns="http://www.w3.org/2000/svg" xmlns:xlink="http://www.w3.org/1999/xlink" width="14" height="14" version="1.1"><g><path fill="#fff" fill-opacity="0" fill-rule="nonzero" stroke="none" d="M 10 3 C 13.92 3 17 6.08 17 10 C 17 13.92 13.92 17 10 17 C 6.08 17 3 13.92 3 10 C 3 6.08 6.08 3 10 3 Z" transform="matrix(1 0 0 1 -3 -3 )"/><path fill="none" stroke="#fff" stroke-width="1" d="M 10 3.5 C 13.64 3.5 16.5 6.36 16.5 10 C 16.5 13.64 13.64 16.5 10 16.5 C 6.36 16.5 3.5 13.64 3.5 10 C 3.5 6.36 6.36 3.5 10 3.5 Z" transform="matrix(1 0 0 1 -3 -3 )"/></g></svg>