<?xml version="1.0" encoding="utf-8"?>
<svg version="1.1" xmlns:xlink="http://www.w3.org/1999/xlink" width="14px" height="14px" xmlns="http://www.w3.org/2000/svg">
  <g transform="matrix(1 0 0 1 -1 -1 )">
    <path d="M 9 10  L 7.5 10  L 7.5 5.5  L 5.5 5.5  L 5.5 6.5  L 6.5 6.5  L 6.5 10  L 5 10  L 5 11  L 9 11  L 9 10  Z M 7.75 3.25  C 7.75 2.8357864376269  7.41421356237311 2.5  7 2.5  C 6.58578643762689 2.5  6.25 2.8357864376269  6.25 3.25  C 6.25 3.66421356237309  6.58578643762689 4  7 4  C 7.41421356237311 4  7.75 3.66421356237309  7.75 3.25  Z M 14 7  C 14 10.8659932488156  10.8659932488156 14  7 14  C 3.13400675118444 14  0 10.8659932488156  0 7  C 0 3.13400675118445  3.13400675118444 0  7 0  C 10.8659932488156 0  14 3.13400675118445  14 7  Z M 13 7  C 13 3.68629150101524  10.3137084989848 1  7 1  C 3.68629150101523 1  1 3.68629150101524  1 7  C 1 10.3137084989848  3.68629150101523 13  7 13  C 10.3137084989848 13  13 10.3137084989848  13 7  Z " fill-rule="nonzero" fill="#161616" stroke="none" transform="matrix(1 0 0 1 1 1 )" />
  </g>
</svg>